<?xml version="1.0" encoding="UTF-8"?>
<svg version="1.1" xmlns="http://www.w3.org/2000/svg" width="1200" height="630">
<path d="M0 0 C396 0 792 0 1200 0 C1200 207.9 1200 415.8 1200 630 C804 630 408 630 0 630 C0 422.1 0 214.2 0 0 Z " fill="#18102B" transform="translate(0,0)"/>
<path d="M0 0 C178.53 0 357.06 0 541 0 C541 0.33 541 0.66 541 1 C540.05423096 1.19408447 540.05423096 1.19408447 539.08935547 1.39208984 C475.09225317 14.76547535 408.25814311 46.7934219 365.671875 98.0234375 C363.70114692 100.35331696 361.59871186 102.53469304 359.5 104.75 C303.62498435 166.07623669 277.45874199 251.03398986 281 333 C284.39095807 398.01372031 308.10038079 460.70231298 348 512 C348.43151367 512.55606934 348.86302734 513.11213867 349.30761719 513.68505859 C354.32717807 520.10124091 359.75763306 526.11710274 365.30078125 532.078125 C367.80487591 534.78878029 370.24926845 537.5427361 372.6875 540.3125 C375.89484455 543.88315438 379.21090019 547.10137915 382.8828125 550.1875 C384.37030161 551.46092242 385.82094632 552.77803971 387.2421875 554.125 C427.78046299 592.51638862 481.8813059 617.39516663 536 629 C536 629.33 536 629.66 536 630 C359.12 630 182.24 630 0 630 C0 422.1 0 214.2 0 0 Z " fill="#0A0A0F" transform="translate(0,0)"/>
<path d="M0 0 C178.2 0 356.4 0 540 0 C540 207.9 540 415.8 540 630 C363.45 630 186.9 630 5 630 C9.14201088 627.92899456 13.09484556 626.96279825 17.5625 625.9375 C75.65991764 611.8968865 136.55753084 579.61643567 175.328125 532.9765625 C177.29885308 530.64668304 179.40128814 528.46530696 181.5 526.25 C237.37501565 464.92376331 263.54125801 379.96601014 260 298 C256.60904193 232.98627969 232.89961921 170.29768702 193 119 C192.56848633 118.44393066 192.13697266 117.88786133 191.69238281 117.31494141 C186.67282193 110.89875909 181.24236694 104.88289726 175.69921875 98.921875 C173.19512409 96.21121971 170.75073155 93.4572639 168.3125 90.6875 C165.10515545 87.11684562 161.78909981 83.89862085 158.1171875 80.8125 C156.62969839 79.53907758 155.17905368 78.22196029 153.7578125 76.875 C112.2393215 37.55530759 55.80525742 11.48220399 0 1 C0 0.67 0 0.34 0 0 Z " fill="#0A0A0F" transform="translate(660,0)"/>
<path d="M0 0 C72.93 0 145.86 0 221 0 C217.80040219 22.39718464 217.80040219 22.39718464 212.6875 32.625 C212.25526123 33.49092773 211.82302246 34.35685547 211.37768555 35.24902344 C207.20414281 43.22986674 201.89164761 49.71274202 195.69192505 56.19119263 C194.00278495 57.99702266 192.38987525 59.85088865 190.7800293 61.72753906 C187.13600393 65.90435865 183.28643623 69.82535632 179.34375 73.71875 C178.2848053 74.77201477 178.2848053 74.77201477 177.20446777 75.84655762 C174.22102625 78.81383766 171.2315929 81.77505363 168.24267578 84.73681641 C166.04509421 86.91618465 163.85062062 89.09864947 161.65625 91.28125 C160.99250366 91.936698 160.32875732 92.592146 159.64489746 93.26745605 C155.76953976 97.12273545 152.09723648 101.0947232 148.52612305 105.23336792 C146.79583934 107.23633531 145.01480891 109.18377055 143.203125 111.11328125 C142.56036621 111.7983374 141.91760742 112.48339355 141.25537109 113.18920898 C138.48162112 116.12606113 135.70312383 119.058288 132.91699219 121.98339844 C131.74676376 123.21443344 130.57987556 124.44866903 129.41894531 125.68847656 C113.8649046 142.2973934 96.01037613 152.68649772 72.9453125 153.89453125 C56.66686769 154.36331522 42.15850773 150.37218987 26.71069336 145.63183594 C25.9792511 145.41066101 25.24780884 145.18948608 24.49420166 144.96160889 C23.13902875 144.55031172 21.78630752 144.13077188 20.43719482 143.70001221 C13.58194361 141.62293181 7.36521036 141.05217291 0 140 C0 93.8 0 47.6 0 0 Z " fill="#7C3AED" transform="translate(0,0)"/>
<path d="M0 0 C0.09683581 2.07560806 0.12186902 4.15457204 0.12025452 6.23243713 C0.12153615 7.21989667 0.12153615 7.21989667 0.12284368 8.22730488 C0.1245003 10.44917106 0.11897418 12.67096295 0.11352539 14.89282227 C0.11324353 16.47915648 0.11340123 18.06549082 0.1139679 19.65182495 C0.11425592 23.97188722 0.10835837 28.29192197 0.10139394 32.61197782 C0.09516125 37.12168315 0.09455667 41.63138905 0.09336853 46.14109802 C0.09025496 54.68694374 0.08204124 63.23277674 0.07201904 71.77861685 C0.06085869 81.50517633 0.05534765 91.23173642 0.05032361 100.95830071 C0.03985864 120.97220759 0.02225871 140.98610299 0 161 C-18.58454862 161.37445158 -37.16832791 161.65623546 -55.75587177 161.82899475 C-64.38744311 161.91135925 -73.01666556 162.0235471 -81.64672852 162.20703125 C-89.17259565 162.36696219 -96.69676176 162.46983243 -104.22428101 162.50541592 C-108.20791645 162.52620842 -112.18668801 162.57471152 -116.16875648 162.69168091 C-140.27199241 163.37233741 -140.27199241 163.37233741 -146.37261581 159.49017334 C-150.06084875 155.92248638 -152.26211932 151.89991998 -154.12457848 147.15957642 C-155.35149862 144.13288843 -156.92915056 141.33290891 -158.51010609 138.47944641 C-166.42895436 123.58489448 -166.567738 106.2179437 -162.11328125 90.15234375 C-158.09621107 78.77769238 -151.74011536 69.75426581 -143.63012695 60.94116211 C-143.02796356 60.28665573 -142.42580017 59.63214935 -141.8053894 58.95780945 C-141.2096109 58.31173233 -140.6138324 57.66565521 -140 57 C-139.48116241 56.43622147 -138.96232483 55.87244293 -138.42776489 55.2915802 C-129.15726352 45.23795939 -119.6904457 35.38321553 -110.06958008 25.66455078 C-108.48058332 24.05389402 -106.89788443 22.43699988 -105.3215332 20.81396484 C-95.0484654 10.24209443 -84.86567609 1.26964648 -72 -6 C-71.3421199 -6.37259949 -70.68423981 -6.74519897 -70.00642395 -7.12908936 C-48.78804671 -18.98458635 -18.06185634 -18.06185634 0 0 Z " fill="#EC4899" transform="translate(1200,469)"/>
<path d="M0 0 C0 64.35 0 128.7 0 195 C-17.60549809 187.95780076 -24.76167477 173.00865003 -31.99169922 156.46142578 C-33.71297519 152.2595119 -35.006395 148.00682484 -36.0859375 143.59375 C-37.69768294 139.02025011 -39.89620081 136.63793717 -44.08203125 134.21875 C-48.82386988 132.42528965 -53.67749547 132.5580212 -58.6875 132.5 C-69.65185609 132.1959228 -80.22186485 130.99642494 -91 129 C-92.06605469 128.81953125 -93.13210938 128.6390625 -94.23046875 128.453125 C-105.61839156 126.02107222 -115.22056886 118.34771186 -121.5390625 108.75 C-126.05001526 100.2587948 -125.85983167 90.49495619 -123.24609375 81.3671875 C-122.29395039 78.82548264 -121.21209093 76.42810448 -120 74 C-119.61199219 73.21238281 -119.22398438 72.42476563 -118.82421875 71.61328125 C-114.49197258 63.67721968 -108.2122262 57.46085834 -102 51 C-94.5752642 43.23540688 -87.39285786 35.4572014 -80.84057617 26.93579102 C-57.05846518 -3.94690936 -44.40334472 0 0 0 Z " fill="#2563EB" transform="translate(1200,0)"/>
<path d="M0 0 C1.30517075 -0.0071553 2.61034149 -0.01431061 3.95506287 -0.02168274 C5.40492225 -0.02452301 6.85478188 -0.02723474 8.30464172 -0.02983093 C9.82903193 -0.03609634 11.35342061 -0.04274321 12.87780762 -0.04974365 C17.88766925 -0.07077965 22.89753116 -0.08114653 27.90742493 -0.09111023 C29.63302438 -0.09515815 31.35862367 -0.09927508 33.08422279 -0.10346031 C41.19257777 -0.12251204 49.30092364 -0.13674235 57.40929669 -0.14507228 C66.76334729 -0.15484094 76.11716102 -0.18115077 85.47112817 -0.22157317 C92.70437687 -0.25175623 99.93755777 -0.26654329 107.17086822 -0.26985329 C111.48935157 -0.27220156 115.80758186 -0.28113254 120.12599754 -0.30631447 C124.19148801 -0.32963824 128.25655959 -0.3338113 132.32209969 -0.32355309 C133.81037161 -0.32305863 135.29866444 -0.32935234 136.78687286 -0.34310913 C144.84503224 -0.41340104 150.93799698 -0.36052522 157.77070618 4.14717102 C159.82929993 6.18232727 159.82929993 6.18232727 161.20820618 8.20967102 C161.68129211 8.88127258 162.15437805 9.55287415 162.64179993 10.24482727 C165.28256269 14.69483234 165.33281332 19.12893915 164.77070618 24.14717102 C162.8708535 30.82690781 158.62724319 34.67173119 152.77070618 38.14717102 C149.4697231 39.24749871 147.01846247 39.28127612 143.54141235 39.29434204 C142.23624161 39.30149734 140.93107086 39.30865265 139.58634949 39.31602478 C138.13649011 39.31886505 136.68663047 39.32157678 135.23677063 39.32417297 C133.71238042 39.33043838 132.18799174 39.33708525 130.66360474 39.34408569 C125.65374311 39.36512169 120.64388119 39.37548858 115.63398743 39.38545227 C113.90838798 39.38950019 112.18278868 39.39361712 110.45718956 39.39780235 C102.34883459 39.41685408 94.24048871 39.43108439 86.13211566 39.43941432 C76.77806506 39.44918298 67.42425134 39.47549281 58.07028419 39.51591522 C50.83703548 39.54609827 43.60385458 39.56088533 36.37054414 39.56419533 C32.05206079 39.5665436 27.7338305 39.57547458 23.41541481 39.60065651 C19.34992434 39.62398028 15.28485276 39.62815334 11.21931267 39.61789513 C9.73104075 39.61740067 8.24274791 39.62369438 6.75453949 39.63745117 C-1.30361988 39.70774308 -7.39658463 39.65486726 -14.22929382 35.14717102 C-16.28788757 33.11201477 -16.28788757 33.11201477 -17.66679382 31.08467102 C-18.13987976 30.41306946 -18.6129657 29.7414679 -19.10038757 29.04951477 C-21.74115033 24.5995097 -21.79140096 20.16540289 -21.22929382 15.14717102 C-19.32944115 8.46743423 -15.08583083 4.62261085 -9.22929382 1.14717102 C-5.92831075 0.04684333 -3.47705012 0.01306592 0 0 Z " fill="#7F40EE" transform="translate(528.2292938232422,424.8528289794922)"/>
<path d="M0 0 C6.17187296 5.00593392 11.0154783 12.26879481 11.90673828 20.28417969 C12.54610007 31.95320106 12.08689146 43.23991977 4.5 52.75 C-2.58190156 60.04420696 -11.68837247 63.48874693 -21.76953125 63.69360352 C-34.2424718 63.66040255 -42.87391868 61.77360086 -52.14453125 52.8125 C-57.08231466 47.1184795 -59.92812972 40.87178217 -60.3125 33.3125 C-60.374375 32.34441406 -60.43625 31.37632812 -60.5 30.37890625 C-60.86689691 20.64467265 -59.331451 12.56661325 -53 4.9375 C-38.95526259 -9.64397896 -16.82514376 -11.33250771 0 0 Z " fill="#FBFBFB" transform="translate(497.3125,260.6875)"/>
<path d="M0 0 C7.0608199 5.83285122 11.69774576 11.41406933 13.875 20.375 C14.37 21.86 14.37 21.86 14.875 23.375 C14.875 27.335 14.875 31.295 14.875 35.375 C-1.295 35.375 -17.465 35.375 -34.125 35.375 C-32.02881423 43.36899522 -32.02881423 43.36899522 -27.125 48.375 C-16.33309618 53.51400182 -3.47719302 49.2088609 7.1875 45.6875 C8.404375 45.254375 9.62125 44.82125 10.875 44.375 C10.875 49.325 10.875 54.275 10.875 59.375 C-2.65624532 65.83309436 -20.01334439 68.63884934 -34.5 63.625 C-42.88404727 59.86393207 -50.15821673 54.27060603 -54 45.6875 C-57.40672729 35.65658075 -57.74063417 23.79076818 -53.58203125 13.9453125 C-48.37236648 4.75507278 -41.67092712 -0.48453632 -31.83984375 -3.69921875 C-20.95886812 -6.41088145 -9.88898459 -5.14227199 0 0 Z " fill="#FBFBFB" transform="translate(692.125,258.625)"/>
<path d="M0 0 C7.54959194 -1.12265157 15.58663813 -2.23669083 23 0 C28.78628613 4.5088915 32.06365513 11.41293269 35 18 C38.68804431 14.51827985 41.48188585 11.03952041 44.25 6.75 C47.94444444 1.05555556 47.94444444 1.05555556 49 0 C50.63472882 -0.08700342 52.27314055 -0.10701063 53.91015625 -0.09765625 C55.39418945 -0.09282227 55.39418945 -0.09282227 56.90820312 -0.08789062 C57.94912109 -0.07951172 58.99003906 -0.07113281 60.0625 -0.0625 C61.62967773 -0.05573242 61.62967773 -0.05573242 63.22851562 -0.04882812 C65.8190666 -0.03699913 68.40950559 -0.02051689 71 0 C68.39792913 4.75056976 65.61557172 8.98408425 62.25 13.25 C61.37443045 14.37976716 60.4994402 15.5099835 59.625 16.640625 C57.93496757 18.81316668 56.22501295 20.96389015 54.5 23.109375 C53.7575 24.06328125 53.015 25.0171875 52.25 26 C51.57453125 26.845625 50.8990625 27.69125 50.203125 28.5625 C48.68219684 30.94006354 48.68219684 30.94006354 49.73657227 33.3840332 C50.96892515 35.93565856 52.31022624 38.03230756 54.01171875 40.29296875 C54.60194824 41.08396973 55.19217773 41.8749707 55.80029297 42.68994141 C56.73446045 43.92623291 56.73446045 43.92623291 57.6875 45.1875 C58.95522889 46.88612064 60.22216392 48.58533405 61.48828125 50.28515625 C62.39827881 51.50356201 62.39827881 51.50356201 63.32666016 52.74658203 C72 64.4266122 72 64.4266122 72 66 C64.76645998 67.13952361 57.10128949 68.19215902 50 66 C44.59132904 61.78989425 41.28472821 55.66336359 38.18481445 49.65234375 C37.79382568 49.10707031 37.40283691 48.56179688 37 48 C36.01 48 35.02 48 34 48 C32.47837771 49.57192059 32.47837771 49.57192059 31.1171875 51.68359375 C30.58996094 52.44607422 30.06273437 53.20855469 29.51953125 53.99414062 C28.97683594 54.80044922 28.43414063 55.60675781 27.875 56.4375 C26.78957452 58.01988259 25.70366257 59.60193164 24.6171875 61.18359375 C24.13878418 61.89056396 23.66038086 62.59753418 23.16748047 63.32592773 C22 65 22 65 21 66 C19.36527118 66.08700342 17.72685945 66.10701063 16.08984375 66.09765625 C15.10048828 66.09443359 14.11113281 66.09121094 13.09179688 66.08789062 C12.05087891 66.07951172 11.00996094 66.07113281 9.9375 66.0625 C8.89271484 66.05798828 7.84792969 66.05347656 6.77148438 66.04882812 C4.1809334 66.03699913 1.59049441 66.02051689 -1 66 C3.19493083 59.57279775 7.610425 53.34725622 12.1875 47.1875 C12.80302734 46.35541016 13.41855469 45.52332031 14.05273438 44.66601562 C18.81337948 38.23424483 18.81337948 38.23424483 20.69238281 35.87573242 C22.20252151 34.07422848 22.20252151 34.07422848 22.06640625 31.7578125 C20.44324833 27.56019531 17.73135867 24.36975025 14.9375 20.875 C13.75427331 19.36271027 12.5719819 17.84968831 11.390625 16.3359375 C10.81248047 15.59956055 10.23433594 14.86318359 9.63867188 14.10449219 C7.43423549 11.27340732 5.30248063 8.39858856 3.1875 5.5 C2.56230469 4.6440625 1.93710937 3.788125 1.29296875 2.90625 C0 1 0 1 0 0 Z " fill="#FCFCFC" transform="translate(716,256)"/>
<path d="M0 0 C6.93 0 13.86 0 21 0 C21 5.94 21 11.88 21 18 C28.26 18 35.52 18 43 18 C43 22.95 43 27.9 43 33 C35.74 33 28.48 33 21 33 C21.07391079 37.66402577 21.15664599 42.32609978 21.26245117 46.98925781 C21.2957398 48.57606965 21.32375947 50.16300103 21.34643555 51.75 C21.37991078 54.02916484 21.4322186 56.30723041 21.48828125 58.5859375 C21.49467117 59.29744965 21.5010611 60.00896179 21.50764465 60.74203491 C21.54009648 62.9600456 21.54009648 62.9600456 22 66 C25.72066472 68.48044315 28.86540474 68.44381173 33.1875 68.625 C33.93708984 68.66367187 34.68667969 68.70234375 35.45898438 68.7421875 C37.30559199 68.83628216 39.1527619 68.91922319 41 69 C41 73.95 41 78.9 41 84 C36.83293647 84.08129387 32.66747577 84.14064936 28.5 84.1875 C27.32695313 84.21263672 26.15390625 84.23777344 24.9453125 84.26367188 C10.90347268 84.38200199 10.90347268 84.38200199 5.48681641 79.68896484 C0.31000419 73.98129271 -0.29628682 67.93895348 -0.1953125 60.5390625 C-0.1924826 59.74849457 -0.18965271 58.95792664 -0.18673706 58.1434021 C-0.17560955 55.63710916 -0.15051926 53.13118355 -0.125 50.625 C-0.11496058 48.91797394 -0.10583641 47.21094223 -0.09765625 45.50390625 C-0.07569463 41.3357976 -0.04121671 37.16796092 0 33 C-3.3 33 -6.6 33 -10 33 C-10 28.05 -10 23.1 -10 18 C-6.7 18 -3.4 18 0 18 C0 12.06 0 6.12 0 0 Z " fill="#FDFDFD" transform="translate(586,238)"/>
<path d="M0 0 C0.70036377 0.00531738 1.40072754 0.01063477 2.12231445 0.01611328 C9.46653033 0.150495 15.28703555 1.51481422 22.125 4.25 C22.125 9.86 22.125 15.47 22.125 21.25 C20.908125 20.610625 19.69125 19.97125 18.4375 19.3125 C12.11189287 16.18833452 6.142456 15.63048141 -0.875 16.25 C-6.32954173 18.16919061 -9.01809876 21.18178684 -11.96484375 26.05078125 C-14.27173309 31.62493876 -13.57359319 39.02249156 -11.75 44.6875 C-9.98347959 48.72526094 -7.47600038 50.77431224 -3.875 53.25 C4.60766035 56.07755345 12.33320994 54.04678224 20.125 50.25 C20.785 49.92 21.445 49.59 22.125 49.25 C22.125 54.86 22.125 60.47 22.125 66.25 C11.13556145 70.95975938 -2.27852191 72.52828383 -13.875 68.625 C-24.07235091 64.28537548 -30.58065935 57.39109553 -34.875 47.25 C-37.75369204 38.6518014 -36.77878915 26.92134134 -33.26171875 18.71484375 C-28.23602864 9.78185655 -21.19206821 4.3907425 -11.58984375 1.13671875 C-7.66412973 0.19966609 -4.00876028 -0.05505345 0 0 Z " fill="#FAFAFB" transform="translate(401.875,253.75)"/>
<path d="M0 0 C1 1 1 1 1.11352539 2.85766602 C1.10828857 3.64842529 1.10305176 4.43918457 1.09765625 5.25390625 C1.09443359 6.10791016 1.09121094 6.96191406 1.08789062 7.84179688 C1.07532227 9.18854492 1.07532227 9.18854492 1.0625 10.5625 C1.05798828 11.46419922 1.05347656 12.36589844 1.04882812 13.29492188 C1.03700225 15.53001314 1.0205222 17.76497437 1 20 C-0.31484375 19.51660156 -0.31484375 19.51660156 -1.65625 19.0234375 C-7.71536351 17.16889575 -13.58816302 16.94756204 -19.4375 19.5 C-24.44378373 24.38417925 -26.42593705 29.77178294 -26.60565186 36.70007324 C-26.60749481 37.88494324 -26.60749481 37.88494324 -26.609375 39.09375 C-26.62591125 39.92588013 -26.64244751 40.75801025 -26.65948486 41.61535645 C-26.70763046 44.24364852 -26.7292603 46.87136354 -26.75 49.5 C-26.7781878 51.29429935 -26.80811912 53.0885722 -26.83984375 54.8828125 C-26.91662785 59.2554652 -26.95745474 63.62634774 -27 68 C-33.93 68 -40.86 68 -48 68 C-48 46.22 -48 24.44 -48 2 C-41.07 2 -34.14 2 -27 2 C-26.67 4.64 -26.34 7.28 -26 10 C-25.57589844 9.52949219 -25.15179687 9.05898438 -24.71484375 8.57421875 C-17.3351346 0.74037365 -10.62556669 -0.87149758 0 0 Z " fill="#FCFCFC" transform="translate(573,254)"/>
<path d="M0 0 C4.67443226 2.66478051 7.49189082 5.80698255 9 11 C9.30195988 13.98409567 9.32473449 16.9400507 9.3125 19.9375 C9.32861328 20.72318359 9.34472656 21.50886719 9.36132812 22.31835938 C9.36680066 28.85804439 7.86868014 32.95335033 3.375 37.875 C-0.94729338 40.59644398 -4.02222691 40.95451921 -9 40 C-13.95796054 37.61283382 -16.02443583 35.09487601 -18 30 C-19.91961524 22.05117068 -20.62641094 12.79609713 -16.25390625 5.58984375 C-11.980478 0.17150949 -6.60637308 -1.5254299 0 0 Z " fill="#100E19" transform="translate(478,269)"/>
<path d="M0 0 C7.59 0 15.18 0 23 0 C23 8.25 23 16.5 23 25 C15.41 25 7.82 25 0 25 C0 16.75 0 8.5 0 0 Z " fill="#A589F7" transform="translate(803,301)"/>
<path d="M0 0 C12 0 12 0 17 2 C18.50934217 5.01868434 18.17510672 7.67297229 18 11 C17.01 12.485 17.01 12.485 16 14 C16.7425 14.5259375 16.7425 14.5259375 17.5 15.0625 C19 17 19 17 19.5 20.4375 C19 24 19 24 14 28 C9.38 28 4.76 28 0 28 C0 18.76 0 9.52 0 0 Z " fill="#9298A4" transform="translate(700,365)"/>
<path d="M0 0 C1.32 0 2.64 0 4 0 C4 9.57 4 19.14 4 29 C2.68 29 1.36 29 0 29 C-0.33 28.34 -0.66 27.68 -1 27 C-1.99 27.66 -2.98 28.32 -4 29 C-10.22222222 28.77777778 -10.22222222 28.77777778 -12.875 26.125 C-15.07198746 21.97513479 -15.39427327 18.65242463 -15 14 C-13.4375 10.625 -13.4375 10.625 -11 8 C-7.4375 7 -7.4375 7 -4 7 C-3.01 7.66 -2.02 8.32 -1 9 C-0.67 6.03 -0.34 3.06 0 0 Z " fill="#8E95A0" transform="translate(677,364)"/>
<path d="M0 0 C2.79563494 2.18195898 3.78900222 3.64568869 4.3359375 7.15625 C4.53990293 11.86314458 4.14864753 15.28909398 1 19 C-2.20528701 21.32106991 -5.12159743 21.55405751 -9 21 C-12.10164769 18.44975635 -13.72566416 16.82300753 -15 13 C-15.53756448 7.30181648 -14.60129241 4.44865533 -11 0 C-7.48165899 -1.7591705 -3.72167026 -0.9386806 0 0 Z " fill="#9197A3" transform="translate(630,372)"/>
<path d="M0 0 C2.79563494 2.18195898 3.78900222 3.64568869 4.3359375 7.15625 C4.53990293 11.86314458 4.14864753 15.28909398 1 19 C-2.20528701 21.32106991 -5.12159743 21.55405751 -9 21 C-12.10164769 18.44975635 -13.72566416 16.82300753 -15 13 C-15.53756448 7.30181648 -14.60129241 4.44865533 -11 0 C-7.48165899 -1.7591705 -3.72167026 -0.9386806 0 0 Z " fill="#9197A4" transform="translate(437,372)"/>
<path d="M0 0 C2.40893555 0.10986328 2.40893555 0.10986328 5 1 C6.39379883 3.26904297 6.39379883 3.26904297 7.45703125 6.2421875 C8.04194336 7.84126953 8.04194336 7.84126953 8.63867188 9.47265625 C9.02603516 10.59542969 9.41339844 11.71820313 9.8125 12.875 C10.42254883 14.54755859 10.42254883 14.54755859 11.04492188 16.25390625 C14 24.48839286 14 24.48839286 14 28 C12.68 27.67 11.36 27.34 10 27 C9.67 25.02 9.34 23.04 9 21 C4.38 21 -0.24 21 -5 21 C-5.33 22.98 -5.66 24.96 -6 27 C-7.32 27.33 -8.64 27.66 -10 28 C-8.71178644 21.52656503 -6.89405048 15.61858345 -4.4375 9.5 C-4.12103516 8.69046875 -3.80457031 7.8809375 -3.47851562 7.046875 C-1.14745146 1.14745146 -1.14745146 1.14745146 0 0 Z " fill="#959CA8" transform="translate(506,365)"/>
<path d="M0 0 C4.12690193 1.7424697 6.58384279 4.24153324 9 8 C9 9.65 9 11.3 9 13 C0.09 13 -8.82 13 -18 13 C-16.95763751 6.74582506 -16.51143164 5.86694141 -12 2 C-7.95154115 -0.69897256 -4.75041428 -0.53620196 0 0 Z " fill="#0F0E14" transform="translate(676,268)"/>
<path d="M0 0 C2.76855316 2.52798087 4.65797623 4.27934439 5.39624023 7.9934082 C5.49076284 10.14235573 5.43868053 12.22798978 5.3125 14.375 C5.28994141 15.11105469 5.26738281 15.84710938 5.24414062 16.60546875 C5.18572927 18.40453842 5.09606337 20.20254753 5 22 C3.68 22 2.36 22 1 22 C0.67 21.34 0.34 20.68 0 20 C-0.99 20.66 -1.98 21.32 -3 22 C-6.65422636 22.46649698 -8.33857062 22.46996298 -11.375 20.3125 C-13 18 -13 18 -13.5625 15.5 C-13 13 -13 13 -11.0625 10.6875 C-6.94978453 8.42130984 -3.59291877 8.63977108 1 9 C0.65213292 7.02463255 0.65213292 7.02463255 0 5 C-2.7459726 3.6270137 -4.9589047 3.87587366 -8 4 C-8.99 4.33 -9.98 4.66 -11 5 C-10.625 3.0625 -10.625 3.0625 -10 1 C-6.82712035 -0.58643982 -3.37885009 -0.96799489 0 0 Z " fill="#8F95A2" transform="translate(753,371)"/>
<path d="M0 0 C5.22383198 4.68343557 7.62617653 9.96399954 8.1418457 16.91088867 C8.69249385 29.06278721 8.29119403 39.15510254 0.25 48.9375 C-6.08337579 55.51763069 -14.19662488 58.96024653 -23.375 59.265625 C-24.91666655 59.27086876 -26.45840265 59.26551944 -28 59.25 C-28.76828125 59.25773437 -29.5365625 59.26546875 -30.328125 59.2734375 C-35.25405629 59.25668263 -39.32795306 58.56563275 -44 57 C-40.52728683 56.00455013 -37.41709202 55.99850024 -33.80615234 56.11669922 C-22.54217943 56.45338775 -13.60362702 54.90159808 -4.6484375 47.5546875 C2.29222087 41.00875852 4.08530933 32.56241597 4.40527344 23.37597656 C4.50224685 16.22639101 4.13636118 10.27272236 0.875 3.75 C0 2 0 2 0 0 Z " fill="#080809" transform="translate(504,267)"/>
<path d="M0 0 C1.75 1.1875 1.75 1.1875 3.75 4.1875 C3.75 6.4975 3.75 8.8075 3.75 11.1875 C-1.2 11.1875 -6.15 11.1875 -11.25 11.1875 C-9.91436384 16.13213635 -9.91436384 16.13213635 -7.25 17.1875 C-5.54297265 17.25746014 -3.83331997 17.27190154 -2.125 17.25 C-1.21492187 17.24097656 -0.30484375 17.23195313 0.6328125 17.22265625 C1.33148437 17.21105469 2.03015625 17.19945312 2.75 17.1875 C1.75 20.1875 1.75 20.1875 -0.25 21.1875 C-4.97102578 21.65960258 -7.90955345 21.92114092 -11.6875 18.875 C-14.7236549 15.69073998 -15.17826688 14.15589717 -15.5 9.8125 C-15.23179349 5.92350564 -14.6629723 4.20371538 -12.25 1.1875 C-8.49496881 -1.53166052 -4.29320079 -1.55032251 0 0 Z " fill="#949AA6" transform="translate(586.25,371.8125)"/>
<path d="M0 0 C0 0.66 0 1.32 0 2 C-0.9075 2.5775 -1.815 3.155 -2.75 3.75 C-6.74380539 6.51494219 -9.30657301 9.41619679 -10.58569336 14.18237305 C-11.1224892 17.83302764 -11.23321299 21.46199482 -11.31640625 25.14453125 C-11.33718735 25.91431808 -11.35796844 26.68410492 -11.37937927 27.47721863 C-11.44446049 29.92222667 -11.50356591 32.36733683 -11.5625 34.8125 C-11.60572468 36.47592177 -11.64934021 38.13933344 -11.69335938 39.80273438 C-11.80083048 43.86838671 -11.90021085 47.93412289 -12 52 C-18.93 52 -25.86 52 -33 52 C-33 51.34 -33 50.68 -33 50 C-27.06 50 -21.12 50 -15 50 C-15.04640625 47.3496875 -15.0928125 44.699375 -15.140625 41.96875 C-15.1718868 39.3805533 -15.19613673 36.79237824 -15.21972656 34.20410156 C-15.23974959 32.41559316 -15.26697654 30.62714946 -15.30175781 28.83886719 C-15.35068955 26.25699838 -15.37306165 23.6760005 -15.390625 21.09375 C-15.41127014 20.30383667 -15.43191528 19.51392334 -15.45318604 18.70007324 C-15.45594039 11.76973883 -13.41756459 6.54480483 -8.625 1.5 C-5.51234647 -0.27865916 -3.529776 -0.32835126 0 0 Z " fill="#080808" transform="translate(561,272)"/>
<path d="M0 0 C2.9375 1 2.9375 1 5 2 C5 2.99 5 3.98 5 5 C3.84371094 4.85691406 3.84371094 4.85691406 2.6640625 4.7109375 C1.66117188 4.60007812 0.65828125 4.48921875 -0.375 4.375 C-1.37273438 4.25898438 -2.37046875 4.14296875 -3.3984375 4.0234375 C-4.25695312 4.01570313 -5.11546875 4.00796875 -6 4 C-6.66 4.66 -7.32 5.32 -8 6 C-7.67958603 8.60280568 -7.67958603 8.60280568 -7 11 C-6.32453125 11.17015625 -5.6490625 11.3403125 -4.953125 11.515625 C4.54630552 14.09639514 4.54630552 14.09639514 7 18 C7.5 21 7.5 21 7 24 C5.1329009 26.30275556 3.64352259 27.67823871 1 29 C-1.0234375 29.16796875 -1.0234375 29.16796875 -3.375 29.1875 C-4.53128906 29.20876953 -4.53128906 29.20876953 -5.7109375 29.23046875 C-8.21834888 28.97801607 -9.83261902 28.25193467 -12 27 C-12 26.01 -12 25.02 -12 24 C-11.44828125 24.16371094 -10.8965625 24.32742188 -10.328125 24.49609375 C-7.73385993 25.05760414 -5.40164589 25.09739008 -2.75 25.0625 C-1.41195312 25.04896484 -1.41195312 25.04896484 -0.046875 25.03515625 C0.62859375 25.02355469 1.3040625 25.01195312 2 25 C2 23.02 2 21.04 2 19 C0.1746875 18.3503125 0.1746875 18.3503125 -1.6875 17.6875 C-5.38709177 16.30343287 -9.15801938 14.84198062 -12 12 C-12.28800741 9.07192466 -12.48146102 6.85002788 -12 4 C-8.47015884 -0.27859535 -5.36039013 -0.57432751 0 0 Z " fill="#939AA5" transform="translate(559,364)"/>
<path d="M0 0 C3.5 0.875 3.5 0.875 5.20703125 2.3828125 C7.13288093 6.09487321 6.82049458 9.51239824 6.6875 13.625 C6.66719727 14.81416016 6.66719727 14.81416016 6.64648438 16.02734375 C6.61125223 17.97685564 6.55744821 19.92601626 6.5 21.875 C5.18 21.875 3.86 21.875 2.5 21.875 C2.43941406 20.65941406 2.37882813 19.44382812 2.31640625 18.19140625 C2.23201668 16.60675772 2.1473679 15.02212298 2.0625 13.4375 C2.02318359 12.63505859 1.98386719 11.83261719 1.94335938 11.00585938 C2.0945704 7.12260439 2.0945704 7.12260439 0.5 3.875 C-1.95809998 3.6249227 -1.95809998 3.6249227 -4.5 3.875 C-7.43447357 6.80947357 -6.96158423 10.05759456 -7.125 14 C-7.16367187 14.75410156 -7.20234375 15.50820313 -7.2421875 16.28515625 C-7.33651031 18.14803184 -7.41934662 20.01148255 -7.5 21.875 C-8.82 21.875 -10.14 21.875 -11.5 21.875 C-11.5 14.945 -11.5 8.015 -11.5 0.875 C-9.025 1.37 -9.025 1.37 -6.5 1.875 C-3.5 -0.125 -3.5 -0.125 0 0 Z " fill="#8B919E" transform="translate(786.5,371.125)"/>
<path d="M0 0 C3.5 0.875 3.5 0.875 5.20703125 2.3828125 C7.13288093 6.09487321 6.82049458 9.51239824 6.6875 13.625 C6.66719727 14.81416016 6.66719727 14.81416016 6.64648438 16.02734375 C6.61125223 17.97685564 6.55744821 19.92601626 6.5 21.875 C5.18 21.875 3.86 21.875 2.5 21.875 C2.43941406 20.65941406 2.37882813 19.44382812 2.31640625 18.19140625 C2.23201668 16.60675772 2.1473679 15.02212298 2.0625 13.4375 C2.02318359 12.63505859 1.98386719 11.83261719 1.94335938 11.00585938 C2.0945704 7.12260439 2.0945704 7.12260439 0.5 3.875 C-1.95809998 3.6249227 -1.95809998 3.6249227 -4.5 3.875 C-7.43447357 6.80947357 -6.96158423 10.05759456 -7.125 14 C-7.16367187 14.75410156 -7.20234375 15.50820313 -7.2421875 16.28515625 C-7.33651031 18.14803184 -7.41934662 20.01148255 -7.5 21.875 C-8.82 21.875 -10.14 21.875 -11.5 21.875 C-11.5 14.945 -11.5 8.015 -11.5 0.875 C-9.025 1.37 -9.025 1.37 -6.5 1.875 C-3.5 -0.125 -3.5 -0.125 0 0 Z " fill="#8A909C" transform="translate(650.5,371.125)"/>
<path d="M0 0 C1.32 0 2.64 0 4 0 C4.06058594 1.14339844 4.12117188 2.28679687 4.18359375 3.46484375 C4.26798428 4.95574305 4.35263302 6.44662775 4.4375 7.9375 C4.47681641 8.69224609 4.51613281 9.44699219 4.55664062 10.22460938 C4.44038024 13.91944187 4.44038024 13.91944187 6 17 C8.45809998 17.2500773 8.45809998 17.2500773 11 17 C13.84614024 14.15385976 13.45579076 11.19630858 13.625 7.375 C13.68300781 6.31539063 13.68300781 6.31539063 13.7421875 5.234375 C13.83647724 3.49001476 13.91932891 1.74504309 14 0 C15.32 0 16.64 0 18 0 C18 6.93 18 13.86 18 21 C16.68 21 15.36 21 14 21 C13.67 20.34 13.34 19.68 13 19 C12.01 19.66 11.02 20.32 10 21 C4.75455334 21.54640069 4.75455334 21.54640069 2.1875 19.6875 C-0.51909242 15.84128972 -0.11695967 11.79913896 -0.0625 7.3125 C-0.05798828 6.61060547 -0.05347656 5.90871094 -0.04882812 5.18554688 C-0.03706927 3.45699462 -0.01913454 1.72848635 0 0 Z " fill="#8A909D" transform="translate(446,372)"/>
<path d="M0 0 C0.99 0 1.98 0 3 0 C3 4.95 3 9.9 3 15 C-7.395 15.495 -7.395 15.495 -18 16 C-18.33 26.23 -18.66 36.46 -19 47 C-19.99 46.67 -20.98 46.34 -22 46 C-22 35.11 -22 24.22 -22 13 C-14.74 13 -7.48 13 0 13 C0 8.71 0 4.42 0 0 Z " fill="#020202" transform="translate(629,258)"/>
<path d="M0 0 C0.66 0 1.32 0 2 0 C4.08278668 6.89923089 4 11.29428288 4 19 C-11.84 19.33 -27.68 19.66 -44 20 C-43.67 22.64 -43.34 25.28 -43 28 C-47.4972009 24.37322508 -47.07538632 23.47229575 -48 17 C-31.83 17 -15.66 17 1 17 C0.67 11.39 0.34 5.78 0 0 Z " fill="#010101" transform="translate(706,277)"/>
<path d="M0 0 C3.96 0 7.92 0 12 0 C12.99 1.98 13.98 3.96 15 6 C15.99 4.02 16.98 2.04 18 0 C19.32 0.33 20.64 0.66 22 1 C21.21527835 3.29426252 20.42261339 5.58522223 19.625 7.875 C19.29242187 8.85146484 19.29242187 8.85146484 18.953125 9.84765625 C17.93037374 12.76550545 17.21443349 14.78556651 15 17 C12.375 17.125 12.375 17.125 10 17 C10 16.34 10 15.68 10 15 C10.99 15 11.98 15 13 15 C12.52309796 13.37433394 12.04340334 11.74948689 11.5625 10.125 C11.29566406 9.22007812 11.02882813 8.31515625 10.75390625 7.3828125 C10.07386174 5.01724619 10.07386174 5.01724619 9 3 C7.68 3 6.36 3 5 3 C4.67 5.97 4.34 8.94 4 12 C2.68 12 1.36 12 0 12 C0 8.04 0 4.08 0 0 Z " fill="#A384F9" transform="translate(540,443)"/>
<path d="M0 0 C2.98509538 0.44776431 3.67138645 1.02915005 5.5 3.375 C6.25976917 7.4196535 6.04211675 11.20516911 4.3125 14.9375 C2.5 16.375 2.5 16.375 0 16.8125 C-2.96768263 16.29315554 -3.6904997 15.7376904 -5.5 13.375 C-5.8984375 11 -5.8984375 11 -5.875 8.375 C-5.88273438 7.50875 -5.89046875 6.6425 -5.8984375 5.75 C-5.26772498 1.99045873 -3.73328232 0.55999235 0 0 Z " fill="#110F18" transform="translate(671.5,373.625)"/>
<path d="M0 0 C2.99710417 0.44956563 3.68343232 0.99789144 5.5 3.375 C5.8984375 5.75 5.8984375 5.75 5.875 8.375 C5.88273438 9.24125 5.89046875 10.1075 5.8984375 11 C5.42742848 13.80758318 4.75994271 14.69355937 2.5 16.375 C0 16.8125 0 16.8125 -2.5 16.375 C-4.79756777 14.55279108 -5.40478417 13.09759682 -5.78515625 10.2109375 C-6.01640956 4.03747969 -6.01640956 4.03747969 -4.1328125 1.62109375 C-2.5 0.375 -2.5 0.375 0 0 Z " fill="#0E0E16" transform="translate(624.5,373.625)"/>
<path d="M0 0 C2.99710417 0.44956563 3.68343232 0.99789144 5.5 3.375 C5.8984375 5.75 5.8984375 5.75 5.875 8.375 C5.88273437 9.24125 5.89046875 10.1075 5.8984375 11 C5.42742848 13.80758318 4.75994271 14.69355937 2.5 16.375 C0 16.8125 0 16.8125 -2.5 16.375 C-4.79756777 14.55279108 -5.40478417 13.09759682 -5.78515625 10.2109375 C-6.01640956 4.03747969 -6.01640956 4.03747969 -4.1328125 1.62109375 C-2.5 0.375 -2.5 0.375 0 0 Z " fill="#151123" transform="translate(431.5,373.625)"/>
<path d="M0 0 C3.24519666 0.30406442 4.61900552 0.56280677 6.80078125 3.06640625 C7.29964844 3.89011719 7.79851562 4.71382813 8.3125 5.5625 C8.82425781 6.38878906 9.33601563 7.21507812 9.86328125 8.06640625 C10.23839844 8.70449219 10.61351562 9.34257812 11 10 C14.25524265 6.97727468 16.61820737 3.74281699 19 0 C20.32 0.33 21.64 0.66 23 1 C21.68889201 2.98010159 20.37618664 4.95911037 19.0625 6.9375 C18.68931641 7.50146484 18.31613281 8.06542969 17.93164062 8.64648438 C15.11328125 12.88671875 15.11328125 12.88671875 14 14 C13.76472227 16.34987262 13.58613583 18.70556039 13.4375 21.0625 C13.35371094 22.35285156 13.26992188 23.64320313 13.18359375 24.97265625 C13.12300781 25.97167969 13.06242187 26.97070312 13 28 C12.01 28 11.02 28 10 28 C10.03222656 27.14019531 10.06445312 26.28039062 10.09765625 25.39453125 C9.99152151 14.58058019 6.50591807 9.24082955 0 1 C0 0.67 0 0.34 0 0 Z " fill="#959CA8" transform="translate(402,365)"/>
<path d="M0 0 C2.0625 0.4375 2.0625 0.4375 4 1 C2.21205956 3.56517228 0.42060853 6.12769872 -1.375 8.6875 C-1.91286133 9.45465332 -2.45072266 10.22180664 -3.00488281 11.01220703 C-7.22382125 16.99048501 -11.6466051 22.76229249 -16.234375 28.4609375 C-18.28545822 30.89506818 -18.28545822 30.89506818 -18 34 C-18.99 33.67 -19.98 33.34 -21 33 C-21.82568359 31.15429688 -21.82568359 31.15429688 -22 29 C-21.15478516 27.26757812 -21.15478516 27.26757812 -19.7890625 25.53125 C-19.28995361 24.88293213 -18.79084473 24.23461426 -18.27661133 23.56665039 C-17.45906372 22.54365845 -17.45906372 22.54365845 -16.625 21.5 C-15.51677791 20.07173031 -14.40870655 18.64334367 -13.30078125 17.21484375 C-12.74471191 16.5069873 -12.18864258 15.79913086 -11.61572266 15.06982422 C-9.29975459 12.10294944 -7.05565814 9.08454549 -4.8125 6.0625 C-1.12234043 1.12234043 -1.12234043 1.12234043 0 0 Z " fill="#09090A" transform="translate(786,258)"/>
<path d="M0 0 C1.32 0 2.64 0 4 0 C4 0.99 4 1.98 4 3 C5.32 3 6.64 3 8 3 C8 3.66 8 4.32 8 5 C6.68 5 5.36 5 4 5 C4 7.64 4 10.28 4 13 C5.32 13 6.64 13 8 13 C8 13.66 8 14.32 8 15 C5.125 15.125 5.125 15.125 2 15 C0 13 0 13 -0.1953125 11.0546875 C-0.13020833 9.03645833 -0.06510417 7.01822917 0 5 C-1.98 5.33 -3.96 5.66 -6 6 C-6.33 8.97 -6.66 11.94 -7 15 C-8.32 15 -9.64 15 -11 15 C-11 11.04 -11 7.08 -11 3 C-7.37 3 -3.74 3 0 3 C0 2.01 0 1.02 0 0 Z " fill="#A486F9" transform="translate(604,440)"/>
<path d="M0 0 C0.66 0.33 1.32 0.66 2 1 C1.10861714 8.28921148 -2.85851798 15.21926149 -7.84716797 20.51025391 C-14.62615334 25.20126873 -25.26974144 23.01342101 -33 22 C-33 21.34 -33 20.68 -33 20 C-31.77925781 20.13664062 -30.55851563 20.27328125 -29.30078125 20.4140625 C-19.98285569 21.07391274 -19.98285569 21.07391274 -11.84033203 17.20214844 C-7.96855026 12.77808114 -4.88683289 7.86273622 -2.00537109 2.75 C-1 1 -1 1 0 0 Z " fill="#060607" transform="translate(751,302)"/>
<path d="M0 0 C0.79921875 0.11085938 1.5984375 0.22171875 2.421875 0.3359375 C3.32679688 0.47902344 3.32679688 0.47902344 4.25 0.625 C4.25 1.615 4.25 2.605 4.25 3.625 C2.3628125 3.5321875 2.3628125 3.5321875 0.4375 3.4375 C-2.08113951 3.45978885 -3.47995606 3.48997803 -5.75 4.625 C-7.38102777 7.88705554 -7.26981506 11.06055389 -6.75 14.625 C-5.91666667 16.79166667 -5.91666667 16.79166667 -3.75 17.625 C-1.03114681 17.85559307 1.50991592 17.75975823 4.25 17.625 C4.25 18.615 4.25 19.605 4.25 20.625 C-3.63711667 22.05121064 -3.63711667 22.05121064 -7.6875 20.5 C-11.14290631 17.35872154 -11.65334336 14.70755433 -12.0625 10.125 C-11.72497424 6.34471144 -11.10467951 4.56834939 -8.75 1.625 C-5.63004842 -0.37203797 -3.62896568 -0.53367142 0 0 Z " fill="#9197A3" transform="translate(605.75,371.375)"/>
<path d="M0 0 C2.375 1.125 2.375 1.125 4 3 C4.5 6 4.5 6 4 9 C1.74827097 11.59814888 0.34982295 11.95716454 -3.0625 12.375 C-6 12 -6 12 -7.875 10.875 C-9.52854531 8.11909116 -9.39365568 6.14924548 -9 3 C-6.78557651 -0.69070582 -4.02540619 -0.49290688 0 0 Z " fill="#A486F9" transform="translate(586,443)"/>
<path d="M0 0 C0.33 0.66 0.66 1.32 1 2 C-0.2375 2.391875 -1.475 2.78375 -2.75 3.1875 C-6.76183073 4.71851667 -8.79854449 6.18978855 -11 10 C-13.87832827 17.8126053 -13.22000686 26.03074462 -11 34 C-15.37147126 30.21139157 -16.68845951 26.94925 -17.29296875 21.2265625 C-17.62586191 14.0828553 -16.74233657 9.43474384 -12 4 C-8.12757982 -0.07623176 -5.5464215 -0.43501345 0 0 Z " fill="#0B0B0D" transform="translate(405,270)"/>
<path d="M0 0 C0 0.66 0 1.32 0 2 C-0.928125 2.495 -1.85625 2.99 -2.8125 3.5 C-6.67259043 5.954762 -7.4636685 9.04217401 -8.5390625 13.34375 C-9.63860018 19.68006884 -9.07193678 25.70237142 -8 32 C-8.99 32 -9.98 32 -11 32 C-13.55256092 23.86371207 -14.98441531 14.34371298 -11.25 6.375 C-8.32984656 1.51832374 -5.82463406 -0.48538617 0 0 Z " fill="#0C0C0D" transform="translate(472,270)"/>
<path d="M0 0 C0.33 0 0.66 0 1 0 C1 5.61 1 11.22 1 17 C-6.3404944 20.6702472 -11.38584825 21.18131645 -19.375 21.1875 C-20.2 21.19974609 -21.025 21.21199219 -21.875 21.22460938 C-26.97847494 21.23676051 -31.16566604 20.64836454 -36 19 C-32.13966986 17.7198391 -28.32019262 17.96991458 -24.3125 18.0625 C-19.0291528 18.1286163 -14.10439 17.9669972 -8.9921875 16.53515625 C-6.35651755 15.82714295 -3.69411564 15.42357909 -1 15 C-1.01160156 14.00097656 -1.02320313 13.00195312 -1.03515625 11.97265625 C-1.04417969 10.68230469 -1.05320312 9.39195312 -1.0625 8.0625 C-1.07410156 6.77472656 -1.08570313 5.48695313 -1.09765625 4.16015625 C-1 1 -1 1 0 0 Z " fill="#08080A" transform="translate(426,305)"/>
<path d="M0 0 C6.625 -0.25 6.625 -0.25 10 2 C10.29296875 4.3828125 10.29296875 4.3828125 10.1875 7.125 C10.16042969 8.03507812 10.13335938 8.94515625 10.10546875 9.8828125 C10.07066406 10.58148438 10.03585937 11.28015625 10 12 C8.37536158 12.05395478 6.75021459 12.09277195 5.125 12.125 C4.22007812 12.14820313 3.31515625 12.17140625 2.3828125 12.1953125 C0 12 0 12 -2 10 C-1.44444444 5.44444444 -1.44444444 5.44444444 0 4 C1.99958364 3.95919217 4.00045254 3.95745644 6 4 C6 3.34 6 2.68 6 2 C3.69 2.33 1.38 2.66 -1 3 C-0.67 2.01 -0.34 1.02 0 0 Z " fill="#A487F9" transform="translate(653,443)"/>
<path d="M0 0 C0 1.32 0 2.64 0 4 C-0.94875 3.95875 -1.8975 3.9175 -2.875 3.875 C-6.10244856 3.65026182 -6.10244856 3.65026182 -8 6 C-8.3063859 8.73434962 -8.5113336 11.38279821 -8.625 14.125 C-8.66367187 14.87910156 -8.70234375 15.63320313 -8.7421875 16.41015625 C-8.83651031 18.27303184 -8.91934662 20.13648255 -9 22 C-10.32 22 -11.64 22 -13 22 C-13 15.07 -13 8.14 -13 1 C-10.525 1.495 -10.525 1.495 -8 2 C-4.77208445 -0.1519437 -3.71599191 -0.20086443 0 0 Z " fill="#898F9B" transform="translate(738,371)"/>
<path d="M0 0 C0 1.32 0 2.64 0 4 C-0.94875 3.95875 -1.8975 3.9175 -2.875 3.875 C-6.10244856 3.65026182 -6.10244856 3.65026182 -8 6 C-8.3063859 8.73434962 -8.5113336 11.38279821 -8.625 14.125 C-8.66367187 14.87910156 -8.70234375 15.63320313 -8.7421875 16.41015625 C-8.83651031 18.27303184 -8.91934662 20.13648255 -9 22 C-10.32 22 -11.64 22 -13 22 C-13 15.07 -13 8.14 -13 1 C-10.525 1.495 -10.525 1.495 -8 2 C-4.77208445 -0.1519437 -3.71599191 -0.20086443 0 0 Z " fill="#898F9B" transform="translate(484,371)"/>
<path d="M0 0 C2.375 1.25 2.375 1.25 4 3 C4 4.32 4 5.64 4 7 C1.03 7 -1.94 7 -5 7 C-4.67 7.66 -4.34 8.32 -4 9 C-1.67843403 9.40729228 0.6568787 9.74438677 3 10 C1 12 1 12 -2.4375 12.3125 C-6 12 -6 12 -7.9375 10.875 C-9.50422245 8.11019567 -9.38976435 6.11811483 -9 3 C-6.78557651 -0.69070582 -4.02540619 -0.49290688 0 0 Z " fill="#9F7DF7" transform="translate(622,443)"/>
<path d="M0 0 C1.258125 -0.04125 2.51625 -0.0825 3.8125 -0.125 C4.52019531 -0.14820313 5.22789062 -0.17140625 5.95703125 -0.1953125 C8 0 8 0 11 2 C11.375 5 11.375 5 11 8 C7.91111478 10.05925681 7.29064073 10.2390374 3.8125 10.125 C1.9253125 10.063125 1.9253125 10.063125 0 10 C0 6.7 0 3.4 0 0 Z " fill="#0F0D18" transform="translate(704,380)"/>
<path d="M0 0 C0.99 0 1.98 0 3 0 C3 4.95 3 9.9 3 15 C-1.08350919 15.05388795 -5.16630899 15.09362147 -9.25 15.125 C-10.98830078 15.15013672 -10.98830078 15.15013672 -12.76171875 15.17578125 C-13.87675781 15.18222656 -14.99179687 15.18867188 -16.140625 15.1953125 C-17.16704102 15.20578613 -18.19345703 15.21625977 -19.25097656 15.22705078 C-22 15 -22 15 -26 13 C-17.42 13 -8.84 13 0 13 C0 8.71 0 4.42 0 0 Z " fill="#000000" transform="translate(627,309)"/>
<path d="M0 0 C2.475 0.495 2.475 0.495 5 1 C5 1.66 5 2.32 5 3 C5.66 3 6.32 3 7 3 C7.33 2.01 7.66 1.02 8 0 C9.32 0 10.64 0 12 0 C11.649375 0.556875 11.29875 1.11375 10.9375 1.6875 C9.75722231 4.59885163 10.08613535 6.02993989 11 9 C11.99 10.485 11.99 10.485 13 12 C11.35 12 9.7 12 8 12 C7.67 11.34 7.34 10.68 7 10 C6.34 10 5.68 10 5 10 C4.67 10.66 4.34 11.32 4 12 C2.68 12 1.36 12 0 12 C0.350625 11.443125 0.70125 10.88625 1.0625 10.3125 C2.58507353 6.55681863 1.23891627 3.7167488 0 0 Z " fill="#A384F8" transform="translate(628,443)"/>
<path d="M0 0 C6.0546875 -0.1953125 6.0546875 -0.1953125 8 0 C10 2 10 2 10.25 4.5 C10 7 10 7 8 9 C5.31160615 9.26991906 2.70858064 9.08737357 0 9 C0 6.03 0 3.06 0 0 Z " fill="#0F0D18" transform="translate(704,368)"/>
<path d="M0 0 C0.99 0 1.98 0 3 0 C3 9.24 3 18.48 3 28 C2.01 28 1.02 28 0 28 C0 18.76 0 9.52 0 0 Z " fill="#9CA3AF" transform="translate(525,365)"/>
<path d="M0 0 C1.32 0 2.64 0 4 0 C4 0.99 4 1.98 4 3 C5.32 3 6.64 3 8 3 C8 3.66 8 4.32 8 5 C6.68 5 5.36 5 4 5 C4 7.64 4 10.28 4 13 C5.32 13 6.64 13 8 13 C8 13.66 8 14.32 8 15 C5.125 15.125 5.125 15.125 2 15 C0 13 0 13 -0.1953125 11.0546875 C-0.09765625 8.02734375 -0.09765625 8.02734375 0 5 C-0.66 5 -1.32 5 -2 5 C-2 4.34 -2 3.68 -2 3 C-1.34 3 -0.68 3 0 3 C0 2.01 0 1.02 0 0 Z " fill="#A486F9" transform="translate(529,440)"/>
<path d="M0 0 C0.99 0 1.98 0 3 0 C3 5.28 3 10.56 3 16 C-4.875 19.375 -4.875 19.375 -9 19 C-8.505 17.515 -8.505 17.515 -8 16 C-5.39137376 14.96868265 -2.75952365 14.56942551 0 14 C0 9.38 0 4.76 0 0 Z " fill="#070708" transform="translate(704,304)"/>
<path d="M0 0 C0.66 0 1.32 0 2 0 C2.67057887 1.7902061 3.3363469 3.58221489 4 5.375 C4.556875 6.87160156 4.556875 6.87160156 5.125 8.3984375 C6 11 6 11 6 13 C2.7 13 -0.6 13 -4 13 C-3.52140759 11.39566191 -3.04210442 9.79153584 -2.5625 8.1875 C-2.29566406 7.29417969 -2.02882813 6.40085937 -1.75390625 5.48046875 C-1.19612127 3.64526945 -0.60655425 1.81966274 0 0 Z " fill="#181620" transform="translate(507,370)"/>
<path d="M0 0 C0.66 0.33 1.32 0.66 2 1 C2 1.66 2 2.32 2 3 C0.35 3 -1.3 3 -3 3 C-3.74957157 6.47147842 -3.74957157 6.47147842 -4 10 C-2.02 9.67 -0.04 9.34 2 9 C2 9.66 2 10.32 2 11 C-0.79870027 12.39935013 -2.90498792 12.25265405 -6 12 C-7.875 10.875 -7.875 10.875 -9 9 C-9.39365568 5.85075452 -9.52854531 3.88090884 -7.875 1.125 C-5.18282457 -0.49030526 -3.07846795 -0.26199727 0 0 Z " fill="#A181F8" transform="translate(573,443)"/>
<path d="M0 0 C0.99 0 1.98 0 3 0 C3 6.93 3 13.86 3 21 C2.01 21 1.02 21 0 21 C0 14.07 0 7.14 0 0 Z " fill="#9CA3AF" transform="translate(765,372)"/>
<path d="M0 0 C-0.75 4.75 -0.75 4.75 -3 7 C-6.625 6.625 -6.625 6.625 -10 6 C-10 4.35 -10 2.7 -10 1 C-6.78548731 -0.60725635 -3.56387464 -0.05748185 0 0 Z " fill="#171323" transform="translate(754,383)"/>
<path d="M0 0 C3.0625 0.3125 3.0625 0.3125 4.9375 1.625 C6.0625 3.3125 6.0625 3.3125 6.0625 6.3125 C2.1025 6.3125 -1.8575 6.3125 -5.9375 6.3125 C-4.47848361 0.47643443 -4.47848361 0.47643443 0 0 Z " fill="#121219" transform="translate(580.9375,373.6875)"/>
<path d="M0 0 C-0.33 0.66 -0.66 1.32 -1 2 C-5.48614805 3.36762183 -10.16525317 3.18366247 -14.8125 3.1875 C-15.58142578 3.19974609 -16.35035156 3.21199219 -17.14257812 3.22460938 C-22.42008198 3.23797014 -26.92771664 2.46326989 -32 1 C-29.05253893 0.14646702 -26.47373621 -0.10776993 -23.41015625 -0.0625 C-22.54326172 -0.05476563 -21.67636719 -0.04703125 -20.78320312 -0.0390625 C-18.97330649 -0.01307691 -17.16341065 0.01296452 -15.35351562 0.0390625 C-10.31422991 0.08395591 -4.6529168 -1.55097227 0 0 Z " fill="#010102" transform="translate(692,323)"/>
<path d="M0 0 C2 0.66666667 4 1.33333333 6 2 C6.33 3.98 6.66 5.96 7 8 C3.625 8.125 3.625 8.125 0 8 C-0.66 7.34 -1.32 6.68 -2 6 C-1.44444444 1.44444444 -1.44444444 1.44444444 0 0 Z " fill="#9970F5" transform="translate(653,447)"/>
<path d="M0 0 C1.32 0 2.64 0 4 0 C4 3.96 4 7.92 4 12 C2.68 12 1.36 12 0 12 C0 8.04 0 4.08 0 0 Z " fill="#A384F9" transform="translate(667,443)"/>
<path d="M0 0 C0.33 0 0.66 0 1 0 C1 4.95 1 9.9 1 15 C4.63 15 8.26 15 12 15 C12 15.66 12 16.32 12 17 C9.03 17 6.06 17 3 17 C3 17.99 3 18.98 3 20 C1.68 19.34 0.36 18.68 -1 18 C-0.505 9.09 -0.505 9.09 0 0 Z " fill="#010101" transform="translate(574,256)"/>
<path d="M0 0 C0.99 0 1.98 0 3 0 C3 5.28 3 10.56 3 16 C2.01 16 1.02 16 0 16 C0 10.72 0 5.44 0 0 Z " fill="#000000" transform="translate(607,240)"/>
<path d="M0 0 C0 0.66 0 1.32 0 2 C-7.26 2 -14.52 2 -22 2 C-22.33 1.34 -22.66 0.68 -23 0 C-19.54210946 -0.19635974 -16.08367803 -0.38058252 -12.625 -0.5625 C-11.64015625 -0.61857422 -10.6553125 -0.67464844 -9.640625 -0.73242188 C-8.69960938 -0.78076172 -7.75859375 -0.82910156 -6.7890625 -0.87890625 C-5.48509521 -0.94960327 -5.48509521 -0.94960327 -4.15478516 -1.02172852 C-2 -1 -2 -1 0 0 Z " fill="#000000" transform="translate(791,322)"/>
<path d="M0 0 C2.0625 0.4375 2.0625 0.4375 4 1 C4 2.98 4 4.96 4 7 C2.0625 7.5625 2.0625 7.5625 0 8 C-1 7 -1 7 -1.125 4 C-1 1 -1 1 0 0 Z " fill="#7F40EE" transform="translate(582,445)"/>
<path d="M0 0 C0.99 0 1.98 0 3 0 C3.33 1.32 3.66 2.64 4 4 C2.68 4.99 1.36 5.98 0 7 C0 4.69 0 2.38 0 0 Z " fill="#121212" transform="translate(546,258)"/>
<path d="M0 0 C-0.33 0.66 -0.66 1.32 -1 2 C-3.32156597 2.40729228 -5.6568787 2.74438677 -8 3 C-8 2.01 -8 1.02 -8 0 C-4.71303767 -0.79953138 -3.28976808 -1.09658936 0 0 Z " fill="#080809" transform="translate(692,323)"/>
</svg>
